<svg width="38" height="38" viewBox="0 0 38 38" fill="none" xmlns="http://www.w3.org/2000/svg">
<circle cx="18.8683" cy="18.8683" r="18.8683" fill="#DBFFFF"/>
<g clip-path="url(#clip0_1_844)">
<path fill-rule="evenodd" clip-rule="evenodd" d="M18.8683 0C8.44354 0 0 8.44354 0 18.8682C0 27.2175 5.40104 34.2695 12.9012 36.7695C13.8446 36.9346 14.1984 36.3686 14.1984 35.8733C14.1984 35.4251 14.1748 33.9393 14.1748 32.3591C9.43413 33.2317 8.20769 31.2034 7.83032 30.142C7.61806 29.5996 6.69823 27.925 5.89633 27.4769C5.23594 27.1231 4.29253 26.2505 5.87274 26.2269C7.35862 26.2033 8.41996 27.5948 8.77374 28.1609C10.4719 31.0147 13.1842 30.2128 14.2691 29.7175C14.4342 28.4911 14.9295 27.6656 15.472 27.1939C11.2738 26.7222 6.88691 25.0948 6.88691 17.8777C6.88691 15.8257 7.61806 14.1276 8.82091 12.8068C8.63223 12.3351 7.97184 10.4011 9.00959 7.80674C9.00959 7.80674 10.5898 7.31145 14.1984 9.74073C15.7078 9.3162 17.3116 9.10393 18.9154 9.10393C20.5192 9.10393 22.123 9.3162 23.6325 9.74073C27.241 7.28786 28.8213 7.80674 28.8213 7.80674C29.859 10.4011 29.1986 12.3351 29.0099 12.8068C30.2128 14.1276 30.9439 15.8022 30.9439 17.8777C30.9439 25.1184 26.5335 26.7222 22.3353 27.1939C23.0193 27.7835 23.6089 28.9156 23.6089 30.6845C23.6089 33.2081 23.5853 35.2365 23.5853 35.8733C23.5853 36.3686 23.9391 36.9582 24.8825 36.7695C28.6281 35.5049 31.8829 33.0976 34.1887 29.8863C36.4946 26.6751 37.7354 22.8216 37.7365 18.8682C37.7365 8.44354 29.293 0 18.8683 0Z" fill="#5222D0"/>
</g>
<defs>
<clipPath id="clip0_1_844">
<rect width="37.7365" height="37.7365" fill="white"/>
</clipPath>
</defs>
</svg>
