<svg width="38" height="38" viewBox="0 0 38 38" fill="none" xmlns="http://www.w3.org/2000/svg">
<circle cx="18.8683" cy="18.8683" r="18.8683" fill="#5222D0"/>
<g clip-path="url(#clip0_1_94)">
<path d="M30.661 11.4975V26.2383C30.661 27.0748 30.0235 27.7124 29.1869 27.7124H27.7128V14.3343L18.8683 20.6876L10.0238 14.3343V27.7124H8.54977C7.71322 27.7124 7.07568 27.0748 7.07568 26.2383V11.4975C7.07568 11.0788 7.23341 10.7103 7.49801 10.4494C7.63581 10.3115 7.79994 10.2027 7.98062 10.1296C8.1613 10.0564 8.35485 10.0203 8.54977 10.0234H9.04137L18.8683 17.1484L28.6953 10.0234H29.1869C29.6056 10.0234 29.9741 10.1811 30.2387 10.4494C30.5033 10.7103 30.661 11.0788 30.661 11.4975Z" fill="#DBFFFF"/>
</g>
<defs>
<clipPath id="clip0_1_94">
<rect width="23.5853" height="23.5853" fill="white" transform="translate(7.07544 7.07568)"/>
</clipPath>
</defs>
</svg>
