<svg width="38" height="38" viewBox="0 0 38 38" fill="none" xmlns="http://www.w3.org/2000/svg">
<ellipse cx="18.8683" cy="18.8683" rx="18.8683" ry="18.8683" fill="#5222D0"/>
<path d="M9.57949 28.7053H13.5275V14.0976H9.57949V28.7053ZM11.5535 7.64917C10.2375 7.64917 9.18469 8.70198 9.18469 10.018C9.18469 11.334 10.2375 12.3868 11.5535 12.3868C12.8695 12.3868 13.9223 11.334 13.9223 10.018C13.9223 8.70198 12.8695 7.64917 11.5535 7.64917ZM20.2392 16.3348V14.0976H16.2911V28.7053H20.2392V21.204C20.2392 16.9928 25.6348 16.7296 25.6348 21.204V28.7053H29.5828V19.7564C29.5828 12.65 22.0816 12.9132 20.2392 16.3348Z" fill="#DBFFFF"/>
</svg>
