<svg width="319" height="239" viewBox="0 0 319 239" fill="none" xmlns="http://www.w3.org/2000/svg">
<path d="M216.256 56.5893C216.296 57.2061 216.316 57.823 216.356 58.4199C216.356 58.5393 216.436 58.6985 216.575 58.6985C233.361 61.0066 250.285 59.0566 267.131 59.0964C271.895 59.0964 276.64 59.2755 281.384 59.7331C281.504 59.753 281.643 59.6337 281.663 59.5143C281.823 58.6985 282.002 57.8827 282.162 57.0668C282.241 56.6888 281.663 56.5296 281.584 56.9077C281.424 57.7235 281.245 58.5393 281.085 59.3551C281.185 59.2755 281.284 59.2158 281.364 59.1362C264.679 57.5046 247.933 59.5541 231.208 59.1959C226.363 59.0964 221.519 58.7781 216.715 58.1214C216.794 58.2209 216.854 58.3204 216.934 58.4C216.894 57.7832 216.874 57.1663 216.834 56.5694C216.834 56.2112 216.236 56.2112 216.256 56.5893Z" fill="#919B9B"/>
<path d="M216.754 56.8875C233.62 56.8875 250.505 56.8875 267.37 56.8875C272.154 56.8875 276.938 56.8875 281.723 56.8875C282.102 56.8875 282.102 56.2905 281.723 56.2905C264.858 56.2905 247.973 56.2905 231.108 56.2905C226.323 56.2905 221.539 56.2905 216.754 56.2905C216.376 56.2905 216.376 56.8875 216.754 56.8875Z" fill="#919B9B"/>
<path d="M220.383 56.4102C220.881 49.2669 221.3 42.1037 221.918 34.9803C221.997 34.0451 222.097 33.1298 222.257 32.2146C222.316 31.8763 222.336 31.1799 222.536 30.9013C222.795 30.5431 223.353 30.5431 223.752 30.4835C224.669 30.3243 226.204 29.7671 226.842 30.7023C227.021 30.9809 227.061 31.5579 227.121 31.8962C227.24 32.4931 227.32 33.0901 227.38 33.687C227.699 37.189 227.24 40.7507 226.981 44.2527C226.682 48.3118 226.383 52.3709 226.084 56.4301C226.064 56.8081 226.662 56.8081 226.682 56.4301C227.121 50.6199 227.599 44.8297 227.958 39.0196C228.117 36.3533 228.197 33.6273 227.539 31.0008C227.36 30.2646 227.081 29.6477 226.244 29.5682C224.968 29.4687 223.493 29.9064 222.257 30.1651C222.157 30.185 222.077 30.2845 222.057 30.3641C221.001 34.4829 221.041 38.9201 220.741 43.1384C220.423 47.5557 220.123 51.9929 219.805 56.4102C219.765 56.7882 220.363 56.7882 220.383 56.4102Z" fill="#919B9B"/>
<path d="M227.798 38.4426C230.231 44.5512 232.802 50.6001 235.493 56.5893C235.653 56.9475 236.171 56.6291 236.012 56.2908C233.34 50.3414 230.789 44.3323 228.377 38.2834C228.237 37.9253 227.659 38.0845 227.798 38.4426Z" fill="#919B9B"/>
<path d="M228.317 35.2387C228.815 33.826 230.35 33.05 231.786 33.4479C232.164 33.5474 232.324 32.9704 231.945 32.8709C230.191 32.3734 228.337 33.3683 227.739 35.0795C227.619 35.4576 228.197 35.5969 228.317 35.2387Z" fill="#919B9B"/>
<path d="M231.786 33.5676C235.733 41.2083 239.66 48.8689 243.607 56.5096C243.786 56.8479 244.305 56.5494 244.125 56.2112C240.178 48.5704 236.251 40.9098 232.304 33.2691C232.124 32.9109 231.606 33.2094 231.786 33.5676Z" fill="#919B9B"/>
<path d="M242.172 28.4339C242.81 37.6864 243.448 46.9388 244.066 56.1912C244.086 56.5693 244.684 56.5693 244.664 56.1912C244.026 46.9388 243.388 37.6864 242.77 28.4339C242.75 28.0559 242.152 28.0559 242.172 28.4339Z" fill="#919B9B"/>
<path d="M242.69 28.7521C243.707 27.8368 245.082 27.8368 246.358 28.0557C246.876 28.1353 247.435 28.2348 247.933 28.4138C248.85 28.7521 248.71 29.5878 248.75 30.4036C248.87 33.249 248.97 36.0944 249.089 38.9397C249.308 44.6902 249.548 50.4605 249.767 56.2109C249.787 56.589 250.385 56.589 250.365 56.2109C250.086 49.3263 249.827 42.4417 249.548 35.577C249.488 33.8658 249.408 32.1347 249.348 30.4235C249.308 29.548 249.428 28.4735 248.511 27.996C247.554 27.4986 246.079 27.3195 245.002 27.3394C243.966 27.3593 243.049 27.6378 242.291 28.3343C241.992 28.573 242.411 29.0108 242.69 28.7521Z" fill="#919B9B"/>
<path d="M232.264 33.2292C234.158 33.3486 236.012 33.9057 237.826 34.4231C239.501 34.9006 241.135 35.4976 242.551 36.5322C242.87 36.7511 243.169 36.2338 242.85 36.0149C241.374 34.9603 239.7 34.3435 237.965 33.846C236.092 33.3088 234.198 32.7716 232.244 32.6323C231.865 32.5925 231.865 33.1894 232.264 33.2292Z" fill="#919B9B"/>
<path d="M249.448 32.1747C250.325 31.9558 251.302 31.737 252.219 31.916C253.575 32.1946 253.854 33.3885 253.914 34.6022C254.013 37.0497 254.053 39.4772 254.113 41.9246C254.232 46.7398 254.292 51.5551 254.312 56.3703C254.312 56.7484 254.91 56.7484 254.91 56.3703C254.89 50.6199 254.811 44.8893 254.651 39.1588C254.611 37.766 254.571 36.393 254.532 35.0002C254.492 34.0849 254.512 33.0701 253.953 32.2941C252.917 30.8416 250.784 31.1997 249.309 31.5778C248.91 31.6972 249.069 32.2742 249.448 32.1747Z" fill="#919B9B"/>
<path d="M253.814 29.0306C253.814 30.8214 253.814 32.5923 253.814 34.3831C253.814 34.7612 254.412 34.7612 254.412 34.3831C254.412 32.5923 254.412 30.8214 254.412 29.0306C254.412 28.6526 253.814 28.6526 253.814 29.0306Z" fill="#919B9B"/>
<path d="M254.691 29.2493C254.85 29.309 255.03 29.3687 255.189 29.4284C255.209 29.5677 255.229 29.707 255.249 29.8662C255.289 30.1845 255.289 30.5228 255.329 30.8611C255.369 31.3784 255.409 31.9156 255.448 32.433C255.528 33.5473 255.588 34.6814 255.648 35.7957C255.787 38.1038 255.887 40.412 255.967 42.7201C256.146 47.2767 256.206 51.8333 256.206 56.3898C256.206 56.7679 256.804 56.7679 256.804 56.3898C256.804 50.719 256.684 45.0282 256.425 39.3574C256.286 36.5916 256.126 33.8258 255.927 31.06C255.887 30.3835 256.007 29.1499 255.389 28.6723C254.97 28.3539 254.392 28.4733 254.173 28.9509C254.033 29.309 254.531 29.6075 254.691 29.2493Z" fill="#919B9B"/>
<path d="M225.307 59.514C225.925 60.5487 226.523 62.1007 227.519 62.8369C228.496 63.5731 229.692 62.9165 230.769 63.2946C231.128 63.4139 231.287 62.8369 230.928 62.7175C229.971 62.3793 228.855 62.9165 227.998 62.3793C227.021 61.7823 226.403 60.1706 225.825 59.1956C225.626 58.8773 225.107 59.1757 225.307 59.514Z" fill="#919B9B"/>
<path d="M231.566 59.7728C231.487 60.8075 231.168 61.7427 230.649 62.6182C230.45 62.9564 230.968 63.2549 231.168 62.9166C231.766 61.9417 232.085 60.8871 232.164 59.7728C232.204 59.3947 231.606 59.3947 231.566 59.7728Z" fill="#919B9B"/>
<path d="M229.872 60.2699C230.051 61.1852 230.231 62.1005 230.43 63.0158C230.51 63.3938 231.088 63.2347 231.008 62.8566C230.829 61.9413 230.649 61.026 230.45 60.1107C230.37 59.7326 229.792 59.8918 229.872 60.2699Z" fill="#919B9B"/>
<path d="M230.589 60.2501C230.629 60.2501 230.669 60.27 230.709 60.2898C230.769 60.4092 230.769 60.5286 230.749 60.648C230.729 60.7873 230.669 60.9266 230.629 61.0659C230.55 61.3444 230.53 61.6031 230.609 61.8817C230.729 62.2597 231.247 62.1005 231.188 61.7225C231.088 61.1852 231.168 60.648 231.387 60.1506C231.188 60.1307 230.988 60.0909 230.809 60.071C230.749 60.6878 230.709 61.3245 230.649 61.9414C230.609 62.3194 231.207 62.3194 231.247 61.9414C231.307 61.3245 231.347 60.6878 231.407 60.071C231.447 59.7128 230.928 59.7128 230.829 59.9914C230.57 60.6082 230.53 61.2449 230.629 61.8817C230.829 61.822 231.008 61.7822 231.207 61.7225C231.028 61.1256 231.726 60.3893 231.128 59.8521C230.769 59.5337 230.191 59.6531 230.051 60.1108C229.892 60.4689 230.47 60.6281 230.589 60.2501Z" fill="#919B9B"/>
<path d="M261.828 55.8927C261.648 55.1565 261.569 54.4401 261.629 53.684C261.529 53.7835 261.429 53.883 261.33 53.9825C264.858 53.8034 268.387 53.5845 271.915 53.505C273.689 53.4652 275.463 53.4652 277.238 53.505C277.636 53.505 278.035 53.5249 278.414 53.5249C278.813 53.5447 279.63 53.4055 279.989 53.5845C280.786 53.9626 280.447 55.4947 280.447 56.1911C280.447 56.5692 281.045 56.5692 281.045 56.1911C281.045 55.2559 281.524 53.2662 280.248 53.0075C279.371 52.8284 278.334 52.9279 277.437 52.908C276.321 52.8881 275.204 52.8682 274.088 52.8881C269.842 52.908 265.596 53.1667 261.33 53.3856C261.17 53.3856 261.031 53.5248 261.031 53.684C260.991 54.4998 261.05 55.2758 261.27 56.0519C261.33 56.4299 261.908 56.2707 261.828 55.8927Z" fill="#919B9B"/>
<path d="M264.041 49.9035C264.28 50.9979 264.459 52.0923 264.539 53.2066C264.559 53.5846 265.157 53.5846 265.137 53.2066C265.057 52.0326 264.878 50.8785 264.619 49.7444C264.539 49.3862 263.961 49.5454 264.041 49.9035Z" fill="#919B9B"/>
<path d="M264.439 50.2819C266.851 50.0829 269.263 49.864 271.676 49.9635C273.948 50.063 276.241 50.7992 278.513 50.5605C278.414 50.461 278.314 50.3615 278.214 50.262C278.134 51.3166 278.254 52.3114 278.593 53.3262C278.713 53.6844 279.291 53.5252 279.171 53.1671C278.852 52.212 278.733 51.2768 278.812 50.262C278.832 50.1028 278.673 49.9436 278.513 49.9635C276.241 50.1824 273.948 49.4462 271.676 49.3666C269.263 49.2671 266.831 49.486 264.439 49.685C264.06 49.7049 264.06 50.3018 264.439 50.2819Z" fill="#919B9B"/>
<path d="M244.145 112.024C244.145 112.86 244.145 113.676 244.145 114.511C244.145 114.89 244.743 114.89 244.743 114.511C244.743 113.676 244.743 112.86 244.743 112.024C244.743 111.646 244.145 111.646 244.145 112.024Z" fill="#919B9B"/>
<path d="M244.444 111.825C259.954 111.825 275.463 111.825 290.973 111.825C291.352 111.825 291.352 111.229 290.973 111.229C275.463 111.229 259.954 111.229 244.444 111.229C244.046 111.229 244.046 111.825 244.444 111.825Z" fill="#919B9B"/>
<path d="M244.923 114.571C260.193 114.571 275.443 114.571 290.714 114.571C291.092 114.571 291.092 113.974 290.714 113.974C275.443 113.974 260.193 113.974 244.923 113.974C244.544 113.974 244.544 114.571 244.923 114.571Z" fill="#919B9B"/>
<path d="M290.674 112.024C290.674 112.601 290.674 113.178 290.674 113.755C290.674 114.133 291.272 114.133 291.272 113.755C291.272 113.178 291.272 112.601 291.272 112.024C291.272 111.646 290.674 111.646 290.674 112.024Z" fill="#919B9B"/>
<path d="M248.75 105.319C249.269 107.368 249.747 109.438 250.146 111.507C250.226 111.885 250.804 111.726 250.724 111.348C250.325 109.278 249.867 107.209 249.328 105.16C249.229 104.781 248.651 104.941 248.75 105.319Z" fill="#919B9B"/>
<path d="M259.117 105.14C258.638 107.189 258.24 109.238 257.941 111.308C257.881 111.686 258.459 111.845 258.519 111.467C258.818 109.398 259.216 107.328 259.695 105.299C259.775 104.921 259.196 104.761 259.117 105.14Z" fill="#919B9B"/>
<path d="M247.116 104.205C247.156 105.239 248.711 105.16 249.468 105.199C251.182 105.279 252.917 105.02 254.631 104.921C255.488 104.861 256.346 104.841 257.203 104.921C257.901 104.981 258.658 105.219 259.336 105.08C260.093 104.921 260.572 104.205 260.133 103.508C259.934 103.19 259.416 103.488 259.615 103.807C260.173 104.742 258.279 104.443 258.1 104.423C257.681 104.364 257.243 104.324 256.824 104.304C255.847 104.244 254.851 104.304 253.874 104.384C253.236 104.423 247.734 105.08 247.714 104.205C247.714 103.807 247.116 103.807 247.116 104.205Z" fill="#919B9B"/>
<path d="M247.814 104.125C247.455 103.011 250.545 103.13 251.063 103.11C251.98 103.07 252.917 103.03 253.834 102.991C254.332 102.971 259.515 102.831 259.376 103.21C259.256 103.568 259.834 103.727 259.954 103.369C260.552 101.598 254.073 102.374 253.236 102.414C251.681 102.473 249.947 102.334 248.431 102.633C247.634 102.792 246.956 103.389 247.235 104.264C247.355 104.642 247.933 104.483 247.814 104.125Z" fill="#919B9B"/>
<path d="M250.465 102.473C249.548 102.055 248.73 101.458 248.092 100.702C247.833 100.384 245.999 97.7374 247.076 97.5782C247.255 97.5583 247.355 97.2797 247.255 97.1404C246.677 96.3047 246.438 95.2302 246.139 94.2752C245.8 93.2405 245.481 92.2058 245.142 91.191C245.082 90.9721 244.982 90.7732 244.943 90.5543C244.843 90.1364 244.783 90.1364 245.282 90.0966C245.82 90.0568 246.099 90.4747 246.458 90.8329C247.135 91.5094 247.734 92.2456 248.272 93.0216C250.285 95.9267 251.402 99.3491 252.239 102.752C252.339 103.13 252.917 102.97 252.817 102.592C251.74 98.2547 250.166 93.7976 246.976 90.5145C246.537 90.0568 245.7 89.0023 244.963 89.1217C244.404 89.2211 244.245 89.8181 244.285 90.3155C244.364 91.4298 244.963 92.6435 245.321 93.718C245.72 94.9517 245.979 96.3843 246.737 97.4588C246.797 97.3195 246.856 97.1603 246.916 97.021C245.6 97.22 246.358 99.0506 246.717 99.7669C247.474 101.219 248.69 102.334 250.166 103.03C250.505 103.15 250.804 102.632 250.465 102.473Z" fill="#919B9B"/>
<path d="M251.143 97.021C251.083 94.494 251.023 91.8675 251.88 89.4599C252.299 88.2859 252.937 87.2314 253.674 86.2365C253.854 85.9778 254.053 85.5599 254.332 85.4008C254.532 85.0824 254.831 85.0426 255.209 85.3013C255.688 85.1819 255.927 85.3013 255.927 85.6594C256.166 86.1967 256.086 87.112 256.086 87.6691C256.086 89.0022 255.767 90.2359 255.449 91.5094C255.329 91.9471 255.229 92.4048 255.269 92.8425C255.309 93.3598 255.588 93.7578 255.728 94.2353C256.126 95.5884 255.429 96.9812 254.95 98.2149C254.472 99.5082 253.973 100.802 253.495 102.115C253.355 102.473 253.933 102.632 254.073 102.274C254.711 100.563 255.389 98.8715 255.987 97.1404C256.405 95.9267 256.605 94.8721 256.126 93.6782C255.488 92.0665 256.505 90.2558 256.645 88.6043C256.724 87.5298 256.904 85.6992 256.206 84.7441C254.691 82.6549 252.279 87.112 251.8 88.1068C250.445 90.8925 250.465 94.0165 250.545 97.0409C250.564 97.419 251.163 97.419 251.143 97.021Z" fill="#919B9B"/>
<path d="M246.119 92.1265C248.093 94.8922 249.269 98.2152 250.644 101.299C250.804 101.657 251.322 101.339 251.163 101.001C249.807 97.8968 248.611 94.5938 246.637 91.828C246.418 91.5096 245.9 91.8081 246.119 92.1265Z" fill="#919B9B"/>
<path d="M251.621 90.7137C251.701 91.7683 252.06 92.7035 252.717 93.5193C252.957 93.8178 253.375 93.3999 253.136 93.1014C252.598 92.405 252.279 91.5892 252.219 90.7137C252.199 90.3357 251.601 90.3357 251.621 90.7137Z" fill="#919B9B"/>
<path d="M254.332 90.5743C254.811 89.8579 255.309 89.1416 255.787 88.4253C256.007 88.1069 255.488 87.8085 255.269 88.1268C254.791 88.8431 254.292 89.5595 253.814 90.2758C253.614 90.5942 254.133 90.8926 254.332 90.5743Z" fill="#919B9B"/>
<path d="M260.273 90.1761C259.774 90.9721 259.057 91.5889 258.399 92.2256C257.681 92.9021 256.963 93.5985 256.246 94.2751C255.967 94.5337 256.385 94.9715 256.664 94.6929C258.04 93.3797 259.774 92.1062 260.791 90.4746C260.99 90.1562 260.472 89.8578 260.273 90.1761Z" fill="#919B9B"/>
<path d="M260.014 90.9721C260.054 92.0267 261.808 93.9767 260.452 94.6134C260.273 94.7129 260.273 94.9517 260.392 95.0909C260.851 95.6481 260.552 96.4838 260.492 97.1404C260.432 97.8766 260.492 98.6128 260.293 99.3291C259.934 100.702 258.658 101.518 257.522 102.234C257.203 102.433 257.502 102.951 257.821 102.752C259.196 101.876 260.612 100.881 260.931 99.17C261.09 98.2547 261.09 97.2996 261.17 96.3843C261.25 95.7277 261.23 95.2103 260.791 94.693C260.771 94.8522 260.751 95.0113 260.731 95.1705C262.625 94.2751 260.632 92.2456 260.592 91.0119C260.592 90.5941 259.994 90.5941 260.014 90.9721Z" fill="#919B9B"/>
<path d="M259.057 93.8973C257.681 96.106 256.505 98.4141 255.528 100.842C255.389 101.2 255.967 101.359 256.106 101.001C257.063 98.633 258.219 96.3646 259.575 94.1958C259.774 93.8575 259.256 93.5591 259.057 93.8973Z" fill="#919B9B"/>
<path d="M249.807 109.398C250.604 110.472 251.701 111.208 253.016 111.487C253.395 111.567 253.555 110.99 253.176 110.91C252.02 110.671 251.023 110.054 250.325 109.099C250.106 108.801 249.588 109.099 249.807 109.398Z" fill="#919B9B"/>
<path d="M249.468 106.95C251.521 108.522 253.694 110.77 256.326 111.308C256.705 111.387 256.864 110.81 256.485 110.73C253.934 110.213 251.781 107.965 249.767 106.433C249.468 106.194 249.169 106.711 249.468 106.95Z" fill="#919B9B"/>
<path d="M251.043 105.438C252.279 106.453 253.475 107.487 254.731 108.462C255.269 108.88 255.827 109.278 256.485 109.537C257.103 109.795 257.761 109.915 258.319 110.313C258.638 110.532 258.937 110.014 258.618 109.795C258.18 109.497 257.741 109.358 257.263 109.179C256.445 108.9 255.787 108.522 255.11 107.985C253.874 107.03 252.678 106.015 251.481 105.02C251.163 104.781 250.744 105.199 251.043 105.438Z" fill="#919B9B"/>
<path d="M254.312 105.16C255.468 106.353 256.864 107.229 258.459 107.746C258.817 107.866 258.977 107.289 258.618 107.169C257.123 106.672 255.827 105.856 254.731 104.722C254.472 104.463 254.033 104.881 254.312 105.16Z" fill="#919B9B"/>
<path d="M268.984 110.949C268.865 110.631 268.685 110.213 268.705 109.875C268.785 108.999 269.383 108.92 269.961 108.82C270.798 108.661 271.676 108.641 272.533 108.641C273.988 108.621 275.463 108.741 276.919 108.8C278.374 108.84 279.809 108.761 281.264 108.641C281.862 108.581 282.919 108.343 283.497 108.542C284.095 108.761 284.255 109.059 284.275 109.616C284.295 110.054 284.295 110.492 284.315 110.949C284.334 111.327 284.932 111.327 284.913 110.949C284.893 110.273 285.092 109.079 284.753 108.442C284.434 107.885 283.697 107.945 283.138 107.945C280.866 107.945 278.653 108.283 276.36 108.184C274.247 108.104 272.114 107.925 270.021 108.243C268.307 108.502 267.868 109.556 268.446 111.148C268.526 111.467 269.104 111.307 268.984 110.949Z" fill="#919B9B"/>
<path d="M273.211 107.746C273.37 107.388 273.51 107.03 273.669 106.672C273.849 106.652 274.028 106.632 274.207 106.592C274.447 106.572 274.666 106.592 274.905 106.572C275.423 106.572 275.922 106.552 276.44 106.552C277.537 106.532 278.613 106.532 279.709 106.512C280.726 106.493 281.763 106.493 282.779 106.473C283.039 106.473 283.298 106.473 283.557 106.453C283.876 106.453 283.976 106.373 284.075 106.612C284.195 106.91 283.976 107.746 283.936 108.064C283.896 108.442 284.494 108.442 284.534 108.064C284.574 107.587 284.873 106.592 284.633 106.154C284.434 105.796 284.135 105.856 283.736 105.856C281.823 105.856 279.889 105.915 277.975 105.935C277.078 105.955 276.181 105.955 275.284 105.975C274.606 105.975 273.769 105.896 273.151 106.214C272.433 106.592 272.094 107.567 272.792 108.144C273.091 108.403 273.51 107.985 273.211 107.746Z" fill="#919B9B"/>
<path d="M277.317 105.319C276.799 104.622 278.972 104.702 279.111 104.682C279.59 104.642 281.225 104.344 280.906 105.418C280.786 105.796 281.364 105.935 281.484 105.577C281.623 105.1 281.464 104.662 281.085 104.344C280.427 103.806 279.61 104.065 278.832 104.105C278.214 104.125 277.477 103.926 276.978 104.403C276.62 104.722 276.52 105.219 276.799 105.617C277.038 105.916 277.557 105.617 277.317 105.319Z" fill="#919B9B"/>
<path d="M246.817 115.009C247.574 116.044 248.471 116.899 249.528 117.615C249.847 117.834 250.146 117.317 249.827 117.098C248.87 116.442 248.013 115.646 247.335 114.691C247.096 114.392 246.577 114.691 246.817 115.009Z" fill="#919B9B"/>
<path d="M249.448 117.416C250.106 117.416 250.764 117.416 251.422 117.416C251.8 117.416 252.418 117.516 252.757 117.337C253.016 117.197 253.096 116.879 253.216 116.64C253.535 116.004 253.913 115.407 254.352 114.83C254.591 114.531 254.173 114.113 253.933 114.412C253.714 114.67 253.515 114.949 253.315 115.228C253.076 115.606 252.917 116.143 252.638 116.481C252.079 117.138 250.265 116.839 249.448 116.819C249.069 116.819 249.069 117.416 249.448 117.416Z" fill="#919B9B"/>
<path d="M251.661 114.969C251.82 115.566 251.98 116.183 252.159 116.78C252.259 117.158 252.837 116.999 252.737 116.621C252.578 116.024 252.418 115.407 252.239 114.81C252.139 114.432 251.561 114.591 251.661 114.969Z" fill="#919B9B"/>
<path d="M275.962 114.869C276.281 115.526 276.62 116.163 277.038 116.76C277.257 117.078 277.537 117.575 277.915 117.755C278.314 117.954 278.872 117.794 279.271 117.755C279.989 117.675 280.706 117.615 281.424 117.536C281.803 117.496 281.803 116.899 281.424 116.939C280.945 116.979 280.467 117.038 279.989 117.078C279.57 117.118 278.952 117.297 278.553 117.217C277.517 117.018 276.879 115.387 276.48 114.551C276.301 114.213 275.782 114.511 275.962 114.869Z" fill="#919B9B"/>
<path d="M281.444 114.372C281.205 115.227 281.085 116.103 281.105 116.978C281.125 117.356 281.723 117.356 281.703 116.978C281.683 116.143 281.783 115.327 282.002 114.531C282.122 114.173 281.544 114.014 281.444 114.372Z" fill="#919B9B"/>
<path d="M281.703 117.277C282.5 116.521 283.258 115.725 283.996 114.909C284.255 114.63 283.836 114.193 283.577 114.491C282.839 115.307 282.082 116.103 281.284 116.859C281.005 117.118 281.424 117.536 281.703 117.277Z" fill="#919B9B"/>
<path d="M153.68 56.5892C153.68 62.2004 153.68 67.7916 153.68 73.4028C153.68 73.7808 154.278 73.7808 154.278 73.4028C154.278 67.7916 154.278 62.2004 154.278 56.5892C154.278 56.2111 153.68 56.2111 153.68 56.5892Z" fill="#919B9B"/>
<path d="M154.158 73.8606C161.275 73.8606 168.412 73.8606 175.529 73.8606C175.907 73.8606 175.907 73.2637 175.529 73.2637C168.412 73.2637 161.275 73.2637 154.158 73.2637C153.76 73.2637 153.76 73.8606 154.158 73.8606Z" fill="#919B9B"/>
<path d="M154.158 56.8875C161.076 56.8875 167.973 56.8875 174.891 56.8875C175.27 56.8875 175.27 56.2905 174.891 56.2905C167.973 56.2905 161.076 56.2905 154.158 56.2905C153.76 56.2905 153.76 56.8875 154.158 56.8875Z" fill="#919B9B"/>
<path d="M174.891 56.5892C174.891 62.2004 174.891 67.7916 174.891 73.4028C174.891 73.7808 175.489 73.7808 175.489 73.4028C175.489 67.7916 175.489 62.2004 175.489 56.5892C175.489 56.2111 174.891 56.2111 174.891 56.5892Z" fill="#919B9B"/>
<path d="M164.803 56.0918C164.784 55.8331 164.823 55.5944 164.943 55.3556C165.003 55.2163 165.242 54.8581 165.382 54.9576C165.541 55.0571 165.601 55.5148 165.621 55.6739C165.681 55.9724 165.681 56.2709 165.641 56.5693C165.601 56.9474 166.199 56.9474 166.239 56.5693C166.279 56.052 166.239 55.5347 166.059 55.0372C165.94 54.7189 165.78 54.3408 165.402 54.301C164.584 54.2015 164.166 55.4551 164.205 56.0719C164.225 56.4897 164.823 56.4897 164.803 56.0918Z" fill="#919B9B"/>
<path d="M154.816 58.5194C154.816 62.9964 154.816 67.4535 154.816 71.9304C154.816 72.3085 155.414 72.3085 155.414 71.9304C155.414 67.4535 155.414 62.9964 155.414 58.5194C155.414 58.1413 154.816 58.1413 154.816 58.5194Z" fill="#919B9B"/>
<path d="M155.115 72.2288C161.375 72.2288 167.634 72.2288 173.894 72.2288C174.273 72.2288 174.273 71.6318 173.894 71.6318C167.634 71.6318 161.375 71.6318 155.115 71.6318C154.736 71.6318 154.736 72.2288 155.115 72.2288Z" fill="#919B9B"/>
<path d="M174.372 71.7708C174.372 67.2938 174.372 62.8367 174.372 58.3597C174.372 57.9817 173.774 57.9817 173.774 58.3597C173.774 62.8367 173.774 67.2938 173.774 71.7708C173.774 72.1687 174.372 72.1687 174.372 71.7708Z" fill="#919B9B"/>
<path d="M155.275 58.9768C161.315 58.9768 167.355 58.9768 173.416 58.9768C173.794 58.9768 173.794 58.3799 173.416 58.3799C167.375 58.3799 161.335 58.3799 155.275 58.3799C154.896 58.3799 154.896 58.9768 155.275 58.9768Z" fill="#919B9B"/>
<path d="M155.374 69.0649C157.707 68.3685 160.079 67.7516 162.391 68.8261C164.046 69.6021 165.481 70.7761 167.335 71.1144C167.714 71.174 167.874 70.6169 167.495 70.5373C165.382 70.1394 163.787 68.6072 161.773 67.9307C159.601 67.2144 157.328 67.8511 155.215 68.4878C154.856 68.6072 155.015 69.1843 155.374 69.0649Z" fill="#919B9B"/>
<path d="M163.149 68.7269C166 67.732 168.97 67.3738 171.96 67.6723C172.339 67.7121 172.339 67.1152 171.96 67.0754C168.91 66.7769 165.88 67.1351 162.989 68.1499C162.631 68.2891 162.79 68.8662 163.149 68.7269Z" fill="#919B9B"/>
<path d="M163.767 64.1103C163.548 63.7323 163.607 63.1751 163.986 62.9165C164.325 62.6777 164.863 62.7772 165.103 63.0955C165.342 63.4338 165.202 63.971 164.824 64.17C164.385 64.3889 163.887 63.971 163.887 63.5333C163.887 63.1552 163.289 63.1552 163.289 63.5333C163.269 64.3292 164.086 65.0057 164.883 64.7869C165.621 64.5879 166.02 63.6527 165.701 62.9762C165.382 62.2598 164.425 62.0012 163.747 62.3593C163.009 62.7573 162.83 63.7323 163.229 64.4287C163.448 64.7471 163.946 64.4486 163.767 64.1103Z" fill="#919B9B"/>
<path d="M260.871 59.4742C261.588 60.4293 261.728 61.7226 262.605 62.5583C263.422 63.3543 264.399 63.2349 265.396 62.8767C265.755 62.7573 265.595 62.1803 265.237 62.2997C264.698 62.4788 264.08 62.6777 263.522 62.4589C263.044 62.2599 262.725 61.8221 262.486 61.3645C262.107 60.6283 261.887 59.8324 261.389 59.1558C261.15 58.8574 260.632 59.1558 260.871 59.4742Z" fill="#919B9B"/>
<path d="M265.316 62.6382C266.273 61.8224 267.111 60.8872 267.828 59.8525C268.047 59.5342 267.529 59.2357 267.31 59.5541C266.632 60.549 265.815 61.4444 264.898 62.2204C264.599 62.4591 265.017 62.8969 265.316 62.6382Z" fill="#919B9B"/>
<path d="M263.861 59.2556C264.14 59.9122 264.26 60.5887 264.24 61.2851C264.22 61.6632 264.818 61.6632 264.838 61.2851C264.858 60.4693 264.698 59.6933 264.379 58.9571C264.24 58.5989 263.721 58.8974 263.861 59.2556Z" fill="#919B9B"/>
<path d="M247.893 137.095C247.893 139.741 247.893 142.408 247.893 145.054C247.893 145.432 248.491 145.432 248.491 145.054C248.491 142.408 248.491 139.741 248.491 137.095C248.491 136.717 247.893 136.717 247.893 137.095Z" fill="#919B9B"/>
<path d="M240.617 146.149C247.654 146.149 254.711 146.149 261.748 146.149C262.127 146.149 262.127 145.552 261.748 145.552C254.711 145.552 247.654 145.552 240.617 145.552C240.238 145.552 240.238 146.149 240.617 146.149Z" fill="#919B9B"/>
<path d="M252.079 146.646C252.079 148.297 252.079 149.969 252.079 151.62C252.079 151.998 252.677 151.998 252.677 151.62C252.677 149.969 252.677 148.297 252.677 146.646C252.677 146.268 252.079 146.268 252.079 146.646Z" fill="#919B9B"/>
<path d="M240.417 152.516C246.657 152.516 252.917 152.516 259.156 152.516C259.535 152.516 259.535 151.919 259.156 151.919C252.917 151.919 246.657 151.919 240.417 151.919C240.039 151.919 240.039 152.516 240.417 152.516Z" fill="#919B9B"/>
<path d="M245.102 153.014C245.102 154.267 245.102 155.54 245.102 156.794C245.102 157.172 245.7 157.172 245.7 156.794C245.7 155.54 245.7 154.267 245.7 153.014C245.7 152.635 245.102 152.635 245.102 153.014Z" fill="#919B9B"/>
<path d="M247.096 56.6685C247.096 55.8328 246.936 54.7782 247.096 53.9624C247.315 52.8084 248.93 53.0272 249.867 52.9675C250.245 52.9476 250.245 52.3507 249.867 52.3706C249.109 52.4104 248.312 52.4104 247.554 52.5298C247.215 52.5895 246.916 52.689 246.717 52.9874C246.478 53.3456 246.518 53.843 246.518 54.2609C246.518 55.0568 246.518 55.8726 246.518 56.6685C246.498 57.0665 247.096 57.0665 247.096 56.6685Z" fill="#919B9B"/>
<path d="M243.587 34.443C245.401 33.9456 247.215 34.0649 248.95 34.7614C249.308 34.9006 249.468 34.3236 249.109 34.1843C247.275 33.4481 245.341 33.3486 243.428 33.866C243.049 33.9853 243.208 34.5624 243.587 34.443Z" fill="#919B9B"/>
<path d="M242.85 32.6525C244.444 31.5581 246.358 31.3592 248.152 32.0755C248.511 32.2148 248.671 31.6377 248.312 31.4984C246.398 30.7224 244.245 30.9612 242.55 32.1352C242.232 32.354 242.531 32.8714 242.85 32.6525Z" fill="#919B9B"/>
<path d="M236.371 43.0788C235.733 43.5165 234.517 44.0935 234.337 44.9292C234.258 45.367 234.457 45.765 234.616 46.1629C234.895 46.8593 235.175 47.5557 235.474 48.2522C236.63 50.9781 237.926 53.6444 239.361 56.2311C239.54 56.5694 240.059 56.2709 239.879 55.9327C238.783 53.9429 237.766 51.9133 236.829 49.844C236.331 48.7496 235.852 47.6353 235.414 46.5211C235.155 45.8644 234.796 45.2874 235.274 44.6109C235.553 44.2129 236.271 43.8747 236.69 43.5961C236.989 43.3772 236.69 42.8599 236.371 43.0788Z" fill="#919B9B"/>
<path d="M152.543 140.597C150.909 141.811 148.935 143.761 148.217 146.547C147.699 148.616 148.198 149.83 148.018 152.496C147.898 154.346 147.42 156.953 145.885 160.057C142.396 159.341 136.535 158.644 129.618 160.236C125.491 161.191 122.182 162.684 119.75 164.037C120.129 164.275 120.647 164.554 121.305 164.733C125.033 165.748 128.96 162.624 129.08 162.843C129.199 163.042 124.694 165.151 124.933 166.982C125.093 168.215 127.306 168.872 129.598 169.568C131.532 170.145 133.366 170.702 135.818 170.424C139.187 170.046 141.519 168.354 142.556 167.479C143.553 167.976 145.028 168.633 146.882 169.21C150.291 170.245 154.995 171.677 158.125 169.727C160.159 168.454 160.777 165.469 161.933 159.54C163.328 152.317 163.986 148.696 162.112 145.731C159.66 141.771 154.617 140.856 152.543 140.597Z" fill="white" stroke="#161616" stroke-width="1.79528" stroke-miterlimit="10"/>
<path d="M145.247 160.276C147.659 161.172 149.653 162.803 151.028 164.972C151.228 165.29 151.746 164.992 151.547 164.674C150.091 162.366 147.958 160.654 145.407 159.699C145.028 159.56 144.888 160.137 145.247 160.276Z" fill="#161616"/>
<path d="M132.409 164.196C130.037 164.594 128.123 166.186 127.266 168.414C127.126 168.772 127.704 168.931 127.844 168.573C128.621 166.544 130.415 165.131 132.568 164.773C132.947 164.713 132.788 164.136 132.409 164.196Z" fill="#161616"/>
<path d="M135.2 166.185C134.343 166.703 133.545 167.3 132.788 167.936C132.289 168.374 131.731 168.891 131.851 169.608C132.15 171.498 134.422 171.08 135.658 170.603C136.017 170.463 135.858 169.886 135.499 170.026C134.961 170.225 134.363 170.483 133.784 170.463C132.848 170.423 132.01 169.528 132.808 168.712C133.565 167.916 134.562 167.28 135.499 166.683C135.818 166.484 135.519 165.966 135.2 166.185Z" fill="#161616"/>
<path d="M171.143 116.103C170.126 116.441 168.83 116.959 167.375 117.675C166.956 117.874 165.9 118.411 164.764 119.147C163.009 120.262 161.733 121.436 160.278 122.908C158.424 124.798 156.55 126.689 154.318 129.713C152.444 132.26 149.533 136.259 147.44 142.129C146.603 144.457 146.124 146.467 145.845 147.9C146.942 147.263 147.938 146.944 148.716 146.765C153.201 145.751 157.507 148.019 161.594 150.148C163.129 150.944 164.345 151.72 165.182 152.257C165.621 150.108 166.059 147.939 166.498 145.79C166.877 143.98 167.235 142.149 167.614 140.338C168.192 139.841 168.97 139.105 169.827 138.15C171.442 136.319 174.651 132.678 175.09 127.624C175.628 121.794 172.159 117.337 171.143 116.103Z" fill="#EC615B"/>
<path d="M169.967 116.342C167.834 116.66 166 117.794 164.345 119.108C162.431 120.6 160.637 122.251 158.962 124.002C155.693 127.385 152.842 131.166 150.49 135.245C150.291 135.583 150.809 135.881 151.008 135.543C153.281 131.603 155.992 127.942 159.142 124.659C160.677 123.067 162.292 121.555 163.986 120.142C165.8 118.65 167.734 117.257 170.126 116.899C170.505 116.859 170.345 116.282 169.967 116.342Z" fill="#161616"/>
<path d="M169.129 138.07C167.654 139.562 166.139 141.015 164.604 142.427C164.325 142.686 164.744 143.104 165.023 142.845C166.558 141.433 168.073 139.98 169.548 138.488C169.807 138.209 169.389 137.791 169.129 138.07Z" fill="#161616"/>
<path d="M167.056 140.796C166.358 144.616 165.681 148.457 164.983 152.277C165.122 152.217 165.282 152.158 165.421 152.098C162.252 149.889 158.723 148.238 154.975 147.203C152.045 146.407 148.317 145.631 145.805 147.84C145.526 148.099 145.945 148.516 146.224 148.258C148.776 145.989 152.902 147.183 155.793 148.059C159.122 149.073 162.252 150.626 165.103 152.595C165.262 152.695 165.501 152.595 165.541 152.416C166.239 148.596 166.917 144.756 167.614 140.935C167.694 140.577 167.116 140.418 167.056 140.796Z" fill="#161616"/>
<path d="M150.629 134.966C148.556 139.005 145.965 143.164 145.785 147.84C145.765 148.218 146.363 148.218 146.383 147.84C146.563 143.283 149.114 139.224 151.148 135.265C151.307 134.926 150.789 134.628 150.629 134.966Z" fill="#161616"/>
<path opacity="0.4" d="M168.352 127.445C164.784 134.528 162.85 140.498 161.714 144.676C160.059 150.805 159.481 155.64 155.195 159.659C154.497 160.316 152.444 162.206 149.214 163.38C142.436 165.827 137.413 162.524 133.147 166.026C132.668 166.424 131.253 167.419 131.412 168.553C131.572 169.628 133.047 170.185 133.266 170.285C135.02 170.961 136.835 170.265 139.107 169.349C141.679 168.315 141.4 167.957 142.556 167.758C144.988 167.34 146.104 168.872 149.334 169.887C150.709 170.304 154.776 171.578 157.707 169.887C159.86 168.633 160.517 166.285 161.554 162.325C162.272 159.639 163.009 155.719 162.89 150.785C163.687 151.402 164.485 152.018 165.282 152.635C166.319 144.238 167.335 135.842 168.352 127.445Z" fill="#3D3D3D"/>
<path opacity="0.38" d="M167.156 136.061C164.425 141.214 163.089 145.572 162.371 148.517C160.936 154.426 161.395 157.212 159.441 161.37C157.348 165.887 153.959 168.752 151.606 170.384C152.922 170.683 156.092 171.24 158.384 169.449C159.999 168.195 160.418 166.405 161.036 163.48C161.813 159.878 162.631 155.779 163.428 151.282C164.046 151.68 164.664 152.078 165.282 152.476C165.92 147.024 166.538 141.532 167.156 136.061Z" fill="#3D3D3D"/>
<path d="M170.724 115.705C170.007 120.381 169.309 125.097 168.631 129.833C166 148.198 163.727 166.245 161.813 183.994C161.853 184.591 162.013 185.546 162.611 186.501C163.209 187.476 164.006 187.974 164.385 188.232C168.013 190.819 169.827 192.132 171.661 193.008C180.453 197.246 190.181 196.748 190.181 196.748C192.234 196.649 196.321 196.39 200.707 194.639C200.946 194.54 202.621 193.764 205.97 192.192C209 190.779 209.538 190.501 210.276 189.824C212.03 188.212 212.708 186.223 213.166 184.81C214.143 181.805 214.043 179.258 214.003 178.642C214.003 178.642 213.804 173.687 213.665 144.756C213.645 138.866 214.223 130.211 217.333 119.525C214.103 117.954 211.073 116.501 207.425 114.75C204.913 113.536 202.581 112.422 199.232 112.024C198.275 111.905 197.417 111.865 196.142 111.885C190.959 111.925 186.692 112.72 184.858 113.039C181.29 113.616 176.466 114.491 170.724 115.705Z" fill="#EC615B"/>
<path d="M170.565 116.402C176.745 115.088 182.984 114.034 189.244 113.258C189.523 113.218 189.683 112.86 189.403 112.701C189.324 112.661 189.244 112.601 189.144 112.561C188.805 112.362 188.506 112.88 188.845 113.079C188.925 113.118 189.005 113.178 189.104 113.218C189.164 113.039 189.204 112.84 189.264 112.661C182.945 113.437 176.645 114.491 170.425 115.825C170.027 115.904 170.186 116.481 170.565 116.402Z" fill="#161616"/>
<path d="M168.711 126.828C166.518 142.428 164.524 158.047 162.73 173.707C162.511 175.677 162.292 177.627 162.072 179.597C161.893 181.308 161.395 183.238 161.614 184.949C161.813 186.461 163.009 187.416 164.106 188.332C165.302 189.327 166.558 190.262 167.874 191.117C173.276 194.6 179.595 196.689 186.014 197.067C193.65 197.505 201.325 195.555 207.843 191.575C208.162 191.376 207.863 190.859 207.544 191.058C196.142 198.002 181.629 198.281 170.007 191.695C168.671 190.938 167.375 190.103 166.139 189.187C164.883 188.252 162.85 186.979 162.332 185.447C162.092 184.71 162.212 183.895 162.292 183.119C162.391 182.144 162.511 181.149 162.611 180.174C162.81 178.343 163.009 176.513 163.229 174.682C164.086 167.22 164.963 159.779 165.92 152.337C166.996 143.88 168.113 135.424 169.309 126.987C169.349 126.609 168.771 126.45 168.711 126.828Z" fill="#161616"/>
<path d="M198.075 111.845C201.584 112.541 204.873 114.153 208.142 115.526C211.352 116.879 214.92 117.973 217.751 120.043C218.07 120.262 218.369 119.744 218.05 119.525C215.279 117.496 211.791 116.421 208.661 115.108C205.272 113.695 201.863 112.004 198.235 111.268C197.856 111.188 197.696 111.765 198.075 111.845Z" fill="#161616"/>
<path d="M213.704 145.591C213.385 153.968 213.067 162.345 213.366 170.702C213.505 174.761 214.143 178.98 213.385 183.019C212.748 186.342 210.874 189.665 207.544 190.898C207.186 191.038 207.345 191.615 207.704 191.476C213.007 189.506 214.382 183.477 214.303 178.423C214.263 175 213.964 171.578 213.884 168.136C213.804 164.634 213.844 161.151 213.904 157.649C213.984 153.63 214.143 149.611 214.283 145.591C214.322 145.193 213.724 145.193 213.704 145.591Z" fill="#161616"/>
<path opacity="0.38" d="M210.834 140.876C209.777 144.497 208.123 148.457 205.571 152.396C194.148 169.926 173.236 173.428 167.894 174.165C175.07 174.921 182.327 175.736 189.663 176.612C197.756 177.567 205.75 178.582 213.625 179.617C213.126 170.722 213.126 163.4 213.246 158.167C213.465 147.342 214.243 138.587 212.827 138.309C212.488 138.229 211.89 138.607 210.834 140.876Z" fill="#3D3D3D"/>
<path opacity="0.42" d="M213.286 147.382C212.568 149.491 211.472 152.476 209.857 155.918C207.584 160.793 205.411 165.489 202.601 168.374C194.746 176.433 179.396 172.951 179.356 173.508C179.336 173.826 184.958 174.722 213.346 177.328C213.346 167.34 213.326 157.371 213.286 147.382Z" fill="#3D3D3D"/>
<path d="M249.049 229.421C175.887 219.671 102.706 209.921 29.5438 200.191C51.1335 187.695 72.7431 175.199 94.3329 162.704C160.338 169.19 226.363 175.697 292.368 182.183C277.915 197.923 263.482 213.682 249.049 229.421Z" fill="white" stroke="#161616" stroke-width="1.79528" stroke-miterlimit="10"/>
<path d="M28.8261 201.882C102.167 211.592 175.509 221.302 248.83 231.013" stroke="#161616" stroke-width="9.57483" stroke-miterlimit="10"/>
<path d="M247.434 231.45C262.804 215.233 278.174 198.997 293.524 182.78" stroke="#161616" stroke-width="9.57483" stroke-miterlimit="10"/>
<path d="M222.954 188.829C215.478 194.659 208.162 200.668 200.966 206.836C200.667 207.095 201.105 207.513 201.384 207.254C208.581 201.086 215.917 195.077 223.373 189.247C223.672 189.028 223.253 188.59 222.954 188.829Z" fill="#161616"/>
<path d="M201.245 207.155C203.597 207.652 205.989 207.652 208.401 207.672C211.113 207.712 213.664 207.991 216.256 208.747C221.12 210.16 225.885 211.095 230.968 210.975C231.347 210.975 231.347 210.378 230.968 210.378C228.357 210.438 225.745 210.279 223.153 209.861C220.721 209.463 218.409 208.747 216.037 208.09C213.764 207.454 211.491 207.155 209.119 207.115C206.528 207.056 203.936 207.135 201.384 206.598C201.025 206.498 200.866 207.075 201.245 207.155Z" fill="#161616"/>
<path d="M223.393 189.267C231.287 189.904 239.122 191.157 246.817 193.027C247.195 193.127 247.355 192.55 246.976 192.45C239.241 190.56 231.347 189.307 223.393 188.67C223.014 188.63 223.014 189.227 223.393 189.267Z" fill="#161616"/>
<path d="M231.427 210.617C236.989 205.126 242.331 199.395 247.395 193.426C247.634 193.127 247.215 192.709 246.976 193.008C241.913 198.957 236.57 204.688 231.008 210.2C230.729 210.478 231.148 210.896 231.427 210.617Z" fill="#161616"/>
<path d="M208.202 204.788C215.06 203.952 221.997 204.807 228.436 207.315C228.795 207.454 228.955 206.877 228.596 206.737C222.117 204.23 215.1 203.355 208.202 204.191C207.823 204.23 207.823 204.827 208.202 204.788Z" fill="#161616"/>
<path d="M218.588 202.598C222.815 202.917 226.981 203.573 231.108 204.548C231.486 204.648 231.646 204.071 231.267 203.971C227.101 202.976 222.875 202.32 218.588 202.001C218.19 201.982 218.21 202.579 218.588 202.598Z" fill="#161616"/>
<path d="M215.419 198.201C221.778 198.34 228.078 199.256 234.218 200.947C234.596 201.046 234.756 200.469 234.377 200.37C228.197 198.678 221.838 197.743 215.419 197.604C215.04 197.604 215.04 198.201 215.419 198.201Z" fill="#161616"/>
<path d="M223.313 196.37C226.742 196.848 230.131 197.445 233.52 198.161C233.898 198.241 234.058 197.664 233.679 197.584C230.29 196.868 226.901 196.271 223.472 195.793C223.094 195.734 222.934 196.311 223.313 196.37Z" fill="#161616"/>
<path d="M218.947 209.722C217.731 211.592 216.515 213.462 215.279 215.313C215.16 215.492 215.319 215.79 215.538 215.77C225.366 214.656 235.334 215.293 244.943 217.641C245.321 217.74 245.481 217.163 245.102 217.064C235.433 214.696 225.426 214.059 215.538 215.154C215.618 215.313 215.718 215.452 215.797 215.611C217.013 213.741 218.23 211.871 219.465 210.02C219.685 209.702 219.166 209.403 218.947 209.722Z" fill="#161616"/>
<path d="M243.049 198.42C246.896 198.34 250.724 198.261 254.571 198.181C254.472 198.062 254.372 197.922 254.292 197.803C251.641 204.11 248.97 210.398 246.318 216.706C246.179 217.064 246.757 217.223 246.896 216.865C249.548 210.557 252.219 204.27 254.87 197.962C254.95 197.783 254.751 197.584 254.591 197.584C250.744 197.664 246.916 197.743 243.069 197.823C242.67 197.843 242.67 198.44 243.049 198.42Z" fill="#161616"/>
<path d="M228.476 213.243C229.493 213.044 230.509 213.005 231.546 213.084C231.925 213.104 231.925 212.507 231.546 212.487C230.45 212.408 229.393 212.467 228.317 212.666C227.938 212.726 228.097 213.303 228.476 213.243Z" fill="#161616"/>
<path d="M234.138 213.303C237.268 213.422 240.397 213.721 243.507 214.198C243.886 214.258 244.045 213.681 243.667 213.621C240.517 213.124 237.327 212.825 234.138 212.706C233.759 212.686 233.759 213.283 234.138 213.303Z" fill="#161616"/>
<path d="M234.317 209.563C235.055 209.563 235.792 209.563 236.55 209.563C236.929 209.563 236.929 208.966 236.55 208.966C235.812 208.966 235.075 208.966 234.317 208.966C233.938 208.966 233.938 209.563 234.317 209.563Z" fill="#161616"/>
<path d="M238.962 209.503C241.414 209.563 243.846 209.802 246.278 210.2C246.657 210.259 246.816 209.682 246.438 209.623C243.966 209.225 241.474 208.986 238.962 208.906C238.583 208.906 238.583 209.503 238.962 209.503Z" fill="#161616"/>
<path d="M238.583 206.1C241.374 206.14 244.145 206.299 246.916 206.618C247.295 206.658 247.295 206.061 246.916 206.021C244.145 205.702 241.374 205.523 238.583 205.503C238.205 205.484 238.205 206.08 238.583 206.1Z" fill="#161616"/>
<path d="M219.864 212.706C221.2 212.746 222.516 212.587 223.831 212.269C224.21 212.169 224.051 211.592 223.672 211.692C222.416 212.01 221.16 212.149 219.864 212.109C219.486 212.109 219.486 212.706 219.864 212.706Z" fill="#161616"/>
<path d="M229.333 181.527C228.815 182.164 228.217 183.457 228.835 184.233C229.214 184.711 229.931 184.611 230.47 184.631C231.446 184.671 232.423 184.731 233.4 184.77C237.367 184.949 241.314 185.148 245.281 185.328C245.66 185.347 245.66 184.75 245.281 184.731C242.351 184.591 239.44 184.452 236.51 184.313C235.075 184.253 233.659 184.173 232.224 184.114C231.526 184.074 230.789 184.114 230.091 184.014C229.573 183.935 229.194 183.915 229.214 183.278C229.234 182.781 229.453 182.323 229.752 181.945C229.991 181.646 229.573 181.209 229.333 181.527Z" fill="#161616"/>
<path d="M229.872 182.283C233.221 182.402 236.57 182.502 239.919 182.621C241.554 182.681 243.208 182.721 244.843 182.78C246.318 182.84 247.873 182.939 248.93 184.074C249.189 184.352 249.608 183.934 249.348 183.656C248.551 182.78 247.474 182.442 246.318 182.283C244.604 182.064 242.83 182.104 241.095 182.044C237.347 181.925 233.6 181.785 229.872 181.666C229.493 181.686 229.493 182.283 229.872 182.283Z" fill="#161616"/>
<path d="M245.082 185.347C246.617 185.367 248.072 184.889 249.308 183.974C249.607 183.755 249.308 183.238 249.009 183.457C247.853 184.312 246.537 184.77 245.082 184.75C244.683 184.75 244.683 185.347 245.082 185.347Z" fill="#161616"/>
<path d="M245.561 182.283C244.723 182.84 244.345 183.875 244.624 184.83C244.723 185.188 245.301 185.049 245.202 184.671C245.002 183.974 245.242 183.198 245.86 182.78C246.179 182.581 245.88 182.064 245.561 182.283Z" fill="#161616"/>
<path d="M164.166 202.917C139.944 198.778 115.723 194.639 91.5021 190.501C106.214 184.571 120.926 178.661 135.638 172.732C158.644 177.846 181.649 182.959 204.634 188.073C191.158 193.028 177.662 197.962 164.166 202.917Z" fill="white" stroke="#161616" stroke-width="1.79528" stroke-miterlimit="10"/>
<path d="M163.169 203.215C163.249 203.454 163.308 203.713 163.388 203.952C163.488 204.27 163.966 204.21 163.966 203.872C163.966 203.673 163.966 203.494 163.966 203.295C163.966 202.917 163.368 202.917 163.368 203.295C163.368 203.534 163.328 203.753 163.229 203.972C163.428 203.972 163.607 203.972 163.807 203.972C163.727 203.713 163.707 203.474 163.767 203.196C163.587 203.215 163.408 203.235 163.229 203.275C163.288 203.335 163.288 203.375 163.249 203.434C163.428 203.454 163.607 203.474 163.787 203.514C163.747 203.375 163.767 203.255 163.847 203.136C163.667 203.076 163.468 203.036 163.288 202.977C163.249 203.295 163.209 203.594 163.169 203.912C163.149 204.071 163.328 204.21 163.468 204.21C163.647 204.21 163.747 204.071 163.767 203.912C163.807 203.594 163.847 203.295 163.886 202.977C163.926 202.678 163.468 202.599 163.328 202.817C163.169 203.076 163.129 203.375 163.209 203.673C163.269 203.932 163.627 203.952 163.747 203.753C163.906 203.514 163.906 203.215 163.727 202.997C163.587 202.818 163.229 202.798 163.189 203.076C163.109 203.434 163.129 203.812 163.229 204.171C163.328 204.469 163.707 204.429 163.807 204.171C163.906 203.892 163.966 203.613 163.966 203.335C163.767 203.335 163.568 203.335 163.368 203.335C163.368 203.534 163.368 203.713 163.368 203.912C163.568 203.892 163.767 203.852 163.946 203.832C163.867 203.594 163.807 203.335 163.727 203.096C163.647 202.678 163.069 202.837 163.169 203.215Z" fill="#161616"/>
<path d="M163.627 204.648C166.837 202.997 170.345 202.121 173.794 201.146C175.489 200.669 177.163 200.151 178.778 199.475C180.333 198.838 181.828 198.042 183.363 197.326C186.772 195.734 190.46 194.699 194.028 193.525C197.736 192.292 201.424 191.058 205.132 189.844C205.491 189.725 205.332 189.148 204.973 189.267C201.265 190.501 197.577 191.734 193.869 192.948C190.36 194.102 186.752 195.137 183.383 196.669C181.629 197.465 179.914 198.4 178.12 199.097C176.486 199.733 174.811 200.231 173.116 200.708C169.787 201.663 166.418 202.539 163.308 204.131C162.989 204.31 163.288 204.827 163.627 204.648Z" fill="#161616"/>
<path d="M163.907 204.529C177.682 199.773 191.417 194.958 205.152 190.063C206.229 189.685 205.77 187.954 204.674 188.332C190.958 193.227 177.203 198.042 163.428 202.798C162.352 203.176 162.81 204.907 163.907 204.529Z" fill="#161616"/>
<path d="M162.352 185.307C164.943 185.566 167.156 187.138 169.708 187.635C170.086 187.715 170.246 187.138 169.867 187.058C167.276 186.541 165.023 184.969 162.352 184.71C161.973 184.691 161.973 185.287 162.352 185.307Z" fill="#161616"/>
<path d="M169.887 187.357C171.462 186.501 172.937 185.487 174.273 184.293C174.552 184.034 174.133 183.616 173.854 183.875C172.538 185.029 171.123 186.024 169.588 186.84C169.249 187.039 169.548 187.556 169.887 187.357Z" fill="#161616"/>
<path d="M162.97 184.173C164.225 183.278 165.521 182.422 166.857 181.627C167.196 181.428 166.877 180.91 166.558 181.109C165.222 181.905 163.926 182.741 162.67 183.656C162.352 183.895 162.651 184.412 162.97 184.173Z" fill="#161616"/>
<path d="M166.956 181.726C169.229 182.582 171.502 183.417 173.794 184.273C174.153 184.412 174.312 183.835 173.954 183.696C171.681 182.84 169.408 182.005 167.116 181.149C166.757 181.03 166.598 181.607 166.956 181.726Z" fill="#161616"/>
<path d="M160.557 187.576C166.558 189.426 172.479 191.555 178.28 193.963C178.638 194.102 178.798 193.525 178.439 193.386C172.638 190.978 166.717 188.849 160.717 186.999C160.338 186.879 160.179 187.456 160.557 187.576Z" fill="#161616"/>
<path d="M161.135 192.212C164.863 194.003 168.631 195.694 172.439 197.346C172.797 197.505 173.096 196.987 172.738 196.828C168.93 195.197 165.162 193.485 161.434 191.695C161.096 191.535 160.797 192.053 161.135 192.212Z" fill="#161616"/>
<path d="M161.674 197.325C163.707 198.36 165.741 199.415 167.774 200.449C168.113 200.628 168.412 200.111 168.073 199.932C166.04 198.897 164.006 197.843 161.973 196.808C161.634 196.629 161.335 197.146 161.674 197.325Z" fill="#161616"/>
<path d="M162.83 197.505C165.641 195.117 168.591 192.928 171.661 190.899C171.98 190.68 171.681 190.163 171.362 190.381C168.252 192.431 165.262 194.679 162.411 197.087C162.112 197.346 162.531 197.764 162.83 197.505Z" fill="#161616"/>
<path d="M162.092 193.426C163.687 192.311 165.282 191.197 166.877 190.063C167.196 189.844 166.897 189.327 166.578 189.546C164.983 190.66 163.388 191.774 161.793 192.908C161.494 193.127 161.793 193.645 162.092 193.426Z" fill="#161616"/>
<path d="M163.089 204.29C138.031 200.032 112.972 195.774 87.9138 191.515C85.5615 173.747 83.1892 155.998 80.8369 138.229C107.809 141.851 134.761 145.472 161.733 149.114C162.192 167.499 162.651 185.884 163.089 204.29Z" fill="white" stroke="#161616" stroke-width="1.79528" stroke-miterlimit="10"/>
<path d="M118.434 173.548C116.262 172.871 115.085 171.041 114.906 168.832C114.727 166.584 115.165 164.415 117.258 163.241C119.112 162.206 121.325 162.504 122.98 163.758C124.634 165.012 126.109 167.578 124.774 169.548C124.555 169.867 125.073 170.165 125.292 169.847C126.727 167.738 125.372 164.952 123.618 163.499C121.803 162.007 119.351 161.549 117.218 162.604C114.746 163.818 114.109 166.285 114.308 168.852C114.507 171.339 115.823 173.389 118.275 174.145C118.634 174.244 118.793 173.667 118.434 173.548Z" fill="#161616"/>
<path d="M118.993 173.767C118.076 172.255 118.375 170.145 119.85 169.091C121.325 168.036 123.438 168.474 124.554 169.827C124.794 170.125 125.212 169.708 124.973 169.409C123.657 167.837 121.185 167.399 119.471 168.613C117.757 169.847 117.398 172.314 118.474 174.065C118.674 174.384 119.192 174.085 118.993 173.767Z" fill="#161616"/>
<path d="M121.046 174.602C120.109 173.607 120.249 171.757 121.505 171.041C122.74 170.324 124.415 171.14 124.814 172.453C124.933 172.811 125.511 172.672 125.392 172.294C124.874 170.623 122.78 169.628 121.205 170.543C119.631 171.458 119.431 173.766 120.627 175.04C120.887 175.299 121.305 174.881 121.046 174.602Z" fill="#161616"/>
<path d="M122.581 175.995C123.358 176.274 124.255 175.816 124.555 175.08C124.873 174.344 124.455 173.548 123.757 173.229C123.059 172.911 122.222 173.09 121.843 173.767C121.484 174.423 121.604 175.319 122.202 175.796C122.501 176.035 122.92 175.617 122.621 175.378C121.823 174.762 122.382 173.309 123.438 173.747C123.897 173.926 124.216 174.403 123.996 174.901C123.777 175.378 123.219 175.617 122.74 175.438C122.382 175.299 122.222 175.876 122.581 175.995Z" fill="#161616"/>
<path d="M161.734 149.093L163.488 203.911" stroke="#161616" stroke-width="1.79528" stroke-miterlimit="10"/>
<path d="M161.853 149.054C162.391 167.081 162.93 185.108 163.468 203.136" stroke="#161616" stroke-width="1.79528" stroke-miterlimit="10"/>
<path opacity="0.37" d="M127.345 145.393C128.641 146.069 139.765 152.118 140.542 162.863C140.981 168.792 138.071 173.289 136.237 176.035C126.349 190.879 106.792 193.505 101.49 194.062C109.205 199.176 136.157 216.029 165.621 215.035C172.18 214.816 182.346 214.358 193.371 208.309C201.644 203.772 207.006 197.942 210.076 194.062C208.182 192.888 206.308 191.734 204.415 190.56C190.5 195.316 176.565 200.071 162.651 204.807C161.933 186.422 161.215 168.056 160.498 149.671C149.434 148.278 138.389 146.845 127.345 145.393Z" fill="#3D3D3D"/>
<path opacity="0.5" d="M111.497 195.356C114.089 197.067 118.096 199.514 123.279 201.862C129.738 204.807 148.856 213.522 169.568 208.687C184.619 205.165 196.261 195.515 195.504 193.923C195.025 192.928 189.184 193.963 163.169 204.29C162.75 195.873 162.332 187.436 161.933 179.02C161.215 186.103 160.478 193.187 159.76 200.25C143.672 198.639 127.585 196.987 111.497 195.356Z" fill="#3D3D3D"/>
<path d="M116.86 172.673C115.404 171.081 114.926 168.852 115.643 166.902C116.381 164.932 118.335 163.241 120.667 163.321C122.72 163.4 124.375 164.833 124.973 166.186C125.412 167.221 125.312 168.176 125.312 168.176C125.252 168.713 125.073 169.131 124.933 169.389C123.917 168.215 122.362 167.678 120.906 168.016C119.112 168.434 118.335 169.966 118.255 170.106C117.438 171.777 118.155 173.329 118.255 173.508C117.777 173.21 117.318 172.931 116.86 172.673Z" fill="#5222D0"/>
<path d="M217.731 147.482C216.655 148.278 215.498 149.352 214.442 150.765C210.515 156.038 211.053 162.226 211.332 164.236C207.843 163.519 201.982 162.823 195.065 164.415C190.938 165.37 187.629 166.862 185.197 168.215C185.576 168.454 186.094 168.732 186.752 168.912C190.48 169.926 194.407 166.802 194.527 167.021C194.646 167.22 190.141 169.329 190.38 171.16C190.54 172.394 192.753 173.05 195.045 173.747C196.979 174.324 198.813 174.881 201.265 174.602C204.634 174.224 206.966 172.533 208.003 171.657C209 172.155 210.475 172.811 212.329 173.389C215.738 174.423 220.442 175.856 223.572 173.906C225.606 172.632 226.224 169.648 227.38 163.718C228.855 156.117 229.593 152.317 227.559 149.909C224.868 146.706 219.466 147.243 217.731 147.482Z" fill="white" stroke="#161616" stroke-width="1.79528" stroke-miterlimit="10"/>
<path d="M210.654 164.435C213.066 165.33 215.06 166.962 216.435 169.13C216.635 169.449 217.153 169.15 216.954 168.832C215.498 166.524 213.365 164.813 210.814 163.857C210.455 163.738 210.295 164.315 210.654 164.435Z" fill="#161616"/>
<path d="M197.836 168.374C195.464 168.772 193.55 170.364 192.693 172.593C192.553 172.951 193.131 173.11 193.271 172.752C194.048 170.722 195.842 169.31 197.995 168.951C198.374 168.892 198.215 168.315 197.836 168.374Z" fill="#161616"/>
<path d="M192.972 172.971C194.208 174.145 195.922 174.543 197.537 174.025C197.896 173.906 197.736 173.329 197.378 173.448C195.962 173.906 194.467 173.587 193.39 172.553C193.111 172.274 192.693 172.692 192.972 172.971Z" fill="#161616"/>
<path d="M200.607 170.344C199.75 170.861 198.952 171.458 198.195 172.095C197.696 172.533 197.138 173.05 197.258 173.767C197.557 175.657 199.829 175.239 201.065 174.761C201.424 174.622 201.265 174.045 200.906 174.184C200.368 174.383 199.77 174.642 199.192 174.622C198.255 174.582 197.417 173.687 198.215 172.871C198.972 172.075 199.969 171.439 200.906 170.842C201.245 170.663 200.946 170.145 200.607 170.344Z" fill="#161616"/>
<path d="M216.735 119.088C217.552 119.725 218.608 120.6 219.725 121.734C220.044 122.053 220.861 122.888 221.678 123.923C222.954 125.515 223.772 127.027 224.669 128.878C225.825 131.245 226.981 133.613 228.137 137.155C229.114 140.14 230.609 144.836 230.789 151.083C230.869 153.551 230.709 155.62 230.55 157.073C229.732 156.137 228.915 155.521 228.237 155.123C224.429 152.795 219.805 153.63 215.439 154.426C213.804 154.725 212.448 155.083 211.512 155.341C211.751 153.153 211.97 150.964 212.209 148.775C212.409 146.945 212.588 145.094 212.787 143.244C212.409 142.587 211.89 141.652 211.412 140.478C210.475 138.229 208.601 133.812 209.678 128.858C210.953 123.167 215.439 119.943 216.735 119.088Z" fill="#EC615B"/>
<path d="M217.432 120.182C219.426 121.217 220.761 123.008 221.918 124.858C223.114 126.769 224.19 128.739 225.147 130.768C227.101 134.907 228.536 139.284 229.473 143.761C229.553 144.139 230.131 143.98 230.051 143.602C229.094 138.946 227.579 134.429 225.506 130.131C224.489 128.022 223.373 125.973 222.097 124.003C220.961 122.252 219.625 120.62 217.751 119.645C217.392 119.486 217.093 120.003 217.432 120.182Z" fill="#161616"/>
<path d="M211.212 140.418C212.129 142.289 213.086 144.119 214.083 145.95C214.262 146.288 214.781 145.99 214.601 145.651C213.605 143.821 212.648 141.99 211.731 140.12C211.551 139.762 211.033 140.06 211.212 140.418Z" fill="#161616"/>
<path d="M212.628 143.841C212.129 147.701 211.631 151.561 211.153 155.421C211.133 155.62 211.372 155.759 211.531 155.7C214.92 154.625 218.449 154.108 221.997 154.227C224.808 154.327 228.536 154.586 230.111 157.331C230.31 157.67 230.809 157.371 230.629 157.033C229.134 154.406 225.865 153.869 223.114 153.69C219.147 153.412 215.16 153.929 211.392 155.123C211.511 155.222 211.651 155.322 211.771 155.401C212.269 151.541 212.767 147.681 213.246 143.821C213.286 143.463 212.688 143.463 212.628 143.841Z" fill="#161616"/>
<path d="M229.433 143.463C230.131 147.84 231.267 152.476 230.091 156.874C229.991 157.252 230.569 157.411 230.669 157.033C231.865 152.536 230.729 147.8 230.011 143.304C229.951 142.926 229.373 143.085 229.433 143.463Z" fill="#161616"/>
<path opacity="0.32" d="M215.219 118.352C217.034 121.734 218.848 125.773 220.383 130.41C223.393 139.563 224.19 147.78 224.25 153.929C222.217 154.048 220.183 154.167 218.15 154.287C218.808 159.003 219.486 163.738 220.143 168.454C218.868 167.718 216.914 166.783 214.402 166.225C213.585 166.046 210.575 165.449 207.365 165.987C200.627 167.121 196.56 172.633 195.643 173.946C196.56 174.324 197.736 174.682 199.152 174.762C203.498 175.02 206.667 172.513 207.604 171.717C210.575 173.21 213.166 173.926 215 174.284C218.21 174.941 221.958 175.697 224.031 173.707C224.19 173.548 224.549 173.17 225.327 171.24C226.543 168.175 227.181 165.31 228.018 160.117C228.197 158.963 228.456 157.411 228.716 155.56C229.214 156.058 229.732 156.575 230.231 157.073C230.47 156.177 230.769 154.844 230.928 153.212C231.347 148.974 230.53 145.631 229.752 142.905C226.622 131.882 224.748 125.236 218.489 120.421C217.193 119.466 215.997 118.769 215.219 118.352Z" fill="#3D3D3D"/>
<path opacity="0.29" d="M225.765 131.981C227.101 138.468 227.28 143.98 227.18 147.959C227.081 151.66 226.702 154.366 226.303 157.092C225.127 165.31 224.529 169.409 222.256 171.319C217.95 174.941 210.275 172.195 208.441 171.498C210.176 172.652 216.415 176.572 222.516 174.403C223.154 174.165 223.851 173.866 224.529 173.428C225.247 172.215 226.204 170.344 226.822 167.897C227.18 166.444 227.28 165.39 227.42 164.156C227.639 162.166 228.018 159.261 228.656 155.62C229.234 156.117 229.832 156.615 230.41 157.112C230.609 156.097 230.868 154.545 230.928 152.635C231.108 148.019 230.091 144.517 228.915 140.518C228.277 138.329 227.28 135.384 225.765 131.981Z" fill="#3D3D3D"/>
<path d="M170.964 79.7499C171.163 81.879 171.522 84.8637 172.319 88.3856C172.838 90.6738 173.157 92.1263 173.834 93.937C174.851 96.663 176.785 101.876 181.828 105.279C183.044 106.114 185.058 107.229 187.889 107.885C188.347 107.925 188.806 107.985 189.264 108.025C189.424 108.86 189.623 110.094 189.822 111.586C190.301 115.427 190.062 116.6 191.058 117.635C192.274 118.889 194.208 118.769 194.627 118.73C197.956 118.511 199.63 115.208 199.71 115.029C199.172 114.054 198.634 112.86 198.195 111.467C197.238 108.383 197.218 105.637 197.378 103.766C198.913 101.558 200.607 99.8665 202.322 98.5533C202.979 98.0558 203.538 97.3793 204.514 97.0411C205.91 96.5635 206.628 97.0411 207.664 96.7227C209.379 96.1854 210.116 93.9768 210.435 93.0615C211.651 89.4401 210.156 85.8585 209.199 83.7295C208.342 81.7795 206.109 76.9444 200.667 73.1638C195.065 69.2639 183.862 64.9262 176.446 70.5572C175.17 71.5322 172.259 74.1388 170.964 79.7499Z" fill="white"/>
<path d="M171.801 87.948C170.525 87.7291 167.295 86.973 165.202 84.2072C162.013 80.0088 163.727 74.1389 165.501 71.0349C168.292 66.16 173.376 64.4687 179.755 62.3396C183.543 61.0861 187.151 59.8922 192.055 60.0912C194.766 60.2106 203.956 60.6085 209.458 67.4334C212.728 71.4727 213.086 75.8104 213.804 84.3664C214.143 88.2862 213.884 90.4153 213.206 92.4448C212.708 93.9173 211.093 98.633 206.448 100.523C204.016 101.518 201.763 101.319 200.527 101.12C201.644 99.4687 202.76 97.8371 203.896 96.1856C204.534 96.2254 206.807 96.2652 208.541 94.6933C210.913 92.5244 211.332 88.2066 209.598 87.0526C208.322 86.197 205.79 87.0327 203.597 89.0025C203.398 87.749 203.079 86.376 202.541 84.9633C200.029 78.218 194.567 74.517 191.895 72.9849C190.839 74.3379 187.49 78.2976 181.549 79.8695C176.844 81.1031 172.937 80.2276 171.203 79.7103C171.402 82.4562 171.601 85.2021 171.801 87.948Z" fill="#5222D0"/>
<path d="M170.804 80.2674C171.621 86.4158 172.479 92.803 175.489 98.3345C177.961 102.871 181.948 106.751 187.071 108.045C187.45 108.144 187.609 107.567 187.231 107.468C182.167 106.174 178.26 102.274 175.868 97.7575C173.017 92.3851 172.2 86.2168 171.402 80.2674C171.342 79.8894 170.744 79.8894 170.804 80.2674Z" fill="#161616"/>
<path d="M187.071 108.124C190.679 108.124 194.467 106.194 197.298 104.125C200.149 102.035 202.481 99.3492 204.156 96.2451C204.335 95.9069 203.817 95.6084 203.637 95.9467C202.022 98.9711 199.77 101.598 196.999 103.607C194.228 105.637 190.56 107.527 187.071 107.527C186.672 107.527 186.672 108.124 187.071 108.124Z" fill="#161616"/>
<path d="M197.278 103.647C196.879 107.667 197.657 111.686 199.491 115.287C199.67 115.626 200.188 115.327 200.009 114.989C198.215 111.467 197.497 107.567 197.876 103.647C197.916 103.269 197.318 103.269 197.278 103.647Z" fill="#161616"/>
<path d="M188.606 108.025C189.264 110.293 189.802 112.601 190.201 114.929C190.46 116.481 190.56 118.232 192.294 118.809C194.886 119.685 198.713 118.133 199.71 115.566C199.85 115.208 199.271 115.049 199.132 115.407C198.574 116.859 197.178 117.655 195.743 118.073C194.547 118.411 192.733 118.769 191.716 117.794C191.118 117.217 191.038 116.302 190.919 115.526C190.779 114.71 190.64 113.894 190.48 113.079C190.121 111.328 189.703 109.577 189.204 107.865C189.085 107.507 188.506 107.666 188.606 108.025Z" fill="#161616"/>
<path d="M189.463 110.492C193.012 110.034 195.344 107.328 197.059 104.423C197.258 104.085 196.74 103.787 196.54 104.125C194.965 106.831 192.773 109.477 189.463 109.895C189.085 109.955 189.085 110.552 189.463 110.492Z" fill="#161616"/>
<path d="M189.324 108.463C192.095 108.144 194.587 106.851 196.441 104.762C196.7 104.483 196.281 104.045 196.022 104.344C194.288 106.314 191.935 107.567 189.324 107.866C188.965 107.905 188.945 108.502 189.324 108.463Z" fill="#161616"/>
<path d="M189.423 108.024C191.656 107.706 193.67 106.791 195.384 105.338C195.683 105.079 195.244 104.662 194.965 104.92C193.331 106.313 191.397 107.169 189.264 107.467C188.885 107.507 189.045 108.084 189.423 108.024Z" fill="#161616"/>
<path d="M189.304 108.522C189.404 108.999 189.384 109.955 189.982 110.114C190.56 110.273 191.437 109.596 191.896 109.318C193.47 108.363 194.786 107.069 195.823 105.557C196.042 105.239 195.524 104.94 195.304 105.259C194.567 106.353 193.67 107.328 192.613 108.124C192.115 108.502 191.597 108.82 191.058 109.119C190.839 109.238 190.341 109.576 190.121 109.437C189.982 109.358 189.922 108.502 189.902 108.363C189.802 107.985 189.224 108.144 189.304 108.522Z" fill="#161616"/>
<path d="M189.583 109.079C191.297 108.383 192.912 107.507 194.427 106.453C194.746 106.234 194.447 105.716 194.128 105.935C192.653 106.97 191.098 107.825 189.424 108.502C189.065 108.641 189.224 109.218 189.583 109.079Z" fill="#161616"/>
<path d="M189.882 109.676C191.796 109 193.47 107.945 194.866 106.473C195.125 106.194 194.706 105.776 194.447 106.055C193.111 107.428 191.537 108.462 189.723 109.099C189.364 109.238 189.523 109.815 189.882 109.676Z" fill="#161616"/>
<path d="M190.201 109.357C191.616 108.74 192.912 107.905 194.028 106.83C194.308 106.572 193.889 106.154 193.61 106.412C192.513 107.447 191.277 108.243 189.902 108.84C189.543 108.999 189.842 109.516 190.201 109.357Z" fill="#161616"/>
<path d="M173.914 95.3896C170.665 94.2355 169.588 89.9973 169.907 86.933C170.246 83.5703 173.276 79.9091 176.984 81.4811C178.758 82.2372 179.416 84.1871 179.895 85.9182C180.393 87.7488 180.612 89.7784 180.134 91.6488C179.715 93.3003 178.699 94.8722 177.104 95.5885C175.509 96.3048 173.615 95.9069 172.539 94.534C172.299 94.2355 171.881 94.6533 172.12 94.9518C173.934 97.2798 177.343 96.8222 179.177 94.7727C181.509 92.1661 181.27 88.2065 180.273 85.0825C179.815 83.63 179.217 82.1178 177.881 81.2821C176.725 80.5459 175.25 80.3668 173.954 80.705C170.924 81.5208 169.349 84.7244 169.289 87.6493C169.229 90.8529 170.485 94.8125 173.794 95.9666C174.113 96.086 174.273 95.5089 173.914 95.3896Z" fill="#161616"/>
<path d="M180.811 89.4401C182.765 88.2661 185.137 88.1467 187.171 89.1615C187.51 89.3406 187.809 88.8232 187.47 88.6441C185.237 87.5299 182.646 87.6294 180.493 88.9227C180.193 89.1217 180.493 89.639 180.811 89.4401Z" fill="#161616"/>
<path d="M190.341 93.6784C188.088 91.5095 187.151 88.1468 188.028 85.1224C188.945 81.9785 192.095 79.2725 195.484 80.3867C199.232 81.6204 199.431 86.9729 198.454 90.1167C197.876 91.9672 196.72 93.8177 194.806 94.4942C192.892 95.1707 191.238 94.1559 189.703 93.0814C189.384 92.8626 189.085 93.3799 189.404 93.5988C190.66 94.4942 192.015 95.3896 193.61 95.3299C195.125 95.2702 196.501 94.4345 197.437 93.3003C199.551 90.7534 199.969 86.8734 199.092 83.7693C198.295 80.9439 195.942 79.1133 192.932 79.6107C190.061 80.0684 187.948 82.6551 187.31 85.3612C186.573 88.4851 187.57 91.8677 189.882 94.0962C190.201 94.3748 190.62 93.937 190.341 93.6784Z" fill="#161616"/>
<path d="M175.728 87.132C175.529 88.3856 175.748 89.5993 176.426 90.6738C176.565 90.8927 176.884 90.8529 176.964 90.5942C177.442 89.2213 176.765 87.8682 176.087 86.6943C175.947 86.4356 175.529 86.555 175.529 86.8535C175.549 87.908 175.768 88.9427 176.167 89.9177C176.306 90.2759 176.884 90.1167 176.745 89.7585C176.366 88.8233 176.147 87.8682 176.127 86.8535C175.947 86.9131 175.748 86.9529 175.568 87.0126C176.186 88.0672 176.824 89.2213 176.386 90.4549C176.565 90.435 176.745 90.4151 176.924 90.3753C176.326 89.4402 176.107 88.3856 176.286 87.2912C176.366 86.9131 175.788 86.754 175.728 87.132Z" fill="#161616"/>
<path d="M193.371 86.5748C193.371 86.3161 193.351 86.2564 193.231 86.0376C193.092 85.7789 192.673 85.8983 192.673 86.1967C192.693 87.4304 192.793 88.7635 193.749 89.639C193.949 89.8181 194.228 89.6788 194.268 89.4202C194.427 87.9477 193.989 86.5748 193.072 85.4207C192.872 85.182 192.513 85.4406 192.573 85.7192C192.812 86.6942 193.112 87.6493 193.47 88.5646C193.61 88.9227 194.188 88.7635 194.048 88.4054C193.67 87.4702 193.371 86.535 193.151 85.56C192.992 85.6595 192.812 85.759 192.653 85.8585C193.47 86.8932 193.809 88.1268 193.67 89.4401C193.849 89.3605 194.009 89.3008 194.188 89.2212C193.331 88.4452 193.291 87.2712 193.271 86.1967C193.092 86.2564 192.892 86.2962 192.713 86.3559C192.733 86.4355 192.753 86.5151 192.773 86.5947C192.773 86.9529 193.371 86.9529 193.371 86.5748Z" fill="#161616"/>
<path d="M182.805 90.4946C182.406 91.6885 182.067 92.9023 181.848 94.1359C181.729 94.7925 181.31 96.0262 181.609 96.6828C182.207 98.016 184.858 97.2002 185.775 96.7624C186.114 96.6032 185.815 96.0859 185.476 96.2451C184.739 96.6032 183.941 96.7823 183.124 96.7226C182.646 96.6828 182.267 96.6032 182.167 96.066C182.107 95.7675 182.307 94.9915 182.366 94.6533C182.606 93.2803 182.964 91.9472 183.403 90.6339C183.503 90.2956 182.925 90.1365 182.805 90.4946Z" fill="#161616"/>
<path d="M185.815 101.976C187.31 101.777 188.606 100.822 189.264 99.4488C189.423 99.1105 188.905 98.7921 188.746 99.1503C188.148 100.404 187.031 101.22 185.656 101.399C185.277 101.458 185.456 102.035 185.815 101.976Z" fill="#161616"/>
<path d="M174.472 85.4206C174.851 84.963 175.549 84.8834 176.027 85.2813C176.326 85.54 176.745 85.1023 176.446 84.8635C175.748 84.2666 174.671 84.3064 174.053 85.0028C173.794 85.2813 174.213 85.6992 174.472 85.4206Z" fill="#161616"/>
<path d="M191.577 84.3065C192.195 83.7693 193.131 83.7693 193.749 84.2866C194.048 84.5254 194.467 84.1075 194.168 83.8688C193.291 83.1126 192.015 83.1325 191.138 83.8887C190.859 84.1473 191.297 84.5652 191.577 84.3065Z" fill="#161616"/>
<path d="M199.431 87.0526C201.584 86.2965 203.797 85.8389 206.089 85.7195C206.468 85.6996 206.468 85.1027 206.089 85.1226C203.757 85.2419 201.484 85.6996 199.271 86.4756C198.913 86.6149 199.052 87.1919 199.431 87.0526Z" fill="#161616"/>
<path opacity="0.4" d="M202.401 62.2598C203.597 63.7919 208.202 70.0796 207.345 78.7152C206.867 83.5304 204.873 87.0722 203.617 88.9426C204.335 88.3855 204.953 88.0074 205.411 87.7487C206.627 87.0722 207.405 86.6544 208.402 86.714C208.701 86.7339 209.418 86.7936 209.937 87.2115C211.452 88.4849 210.933 93.0017 208.242 95.1109C206.767 96.2649 205.033 96.3843 204.156 96.3644C203.019 97.9761 201.863 99.5879 200.727 101.219C201.484 101.339 202.64 101.438 203.976 101.239C204.554 101.16 206.867 100.742 209.06 98.9909C211.213 97.2598 212.09 95.1507 212.668 93.718C214.263 89.7385 213.944 86.2365 213.385 79.9289C213.146 77.1234 213.007 75.6907 212.449 73.8004C211.85 71.751 210.914 68.7265 208.242 66.0204C206.328 64.0307 204.175 62.9164 202.401 62.2598Z" fill="#3D3D3D"/>
<path opacity="0.48" d="M183.144 79.2725C185.137 77.5016 187.37 75.2332 189.523 72.4078C190.859 70.6568 191.975 68.9655 192.892 67.3936C192.553 69.1843 192.214 70.9751 191.895 72.7659C191.118 73.8802 189.822 75.472 187.809 76.9246C186.035 78.1781 184.36 78.8745 183.144 79.2725Z" fill="#3D3D3D"/>
<path opacity="0.27" d="M197.318 77.0039C198.833 82.038 198.953 86.2563 198.813 89.042C198.713 91.1114 198.155 101.956 192.434 105.696C191.876 106.055 190.46 106.89 190.52 107.01C190.6 107.149 193.251 105.975 194.706 105.179C196.999 103.945 200.527 101.458 203.797 96.2052C204.335 96.2649 206.966 96.444 208.86 94.6333C211.153 92.4644 211.551 88.2063 209.737 86.9528C208.442 86.0574 205.97 86.8135 203.797 88.6043C203.577 87.689 203.298 86.7339 202.92 85.7191C201.424 81.7794 199.172 78.9141 197.318 77.0039Z" fill="#3D3D3D"/>
<path opacity="0.36" d="M192.514 106.85C193.032 108.442 193.55 110.034 194.068 111.646C194.786 113.834 195.484 116.043 196.182 118.232C196.58 118.152 197.557 117.874 198.414 116.998C199.272 116.123 199.551 115.168 199.65 114.77C198.873 113.238 197.956 110.91 197.637 107.965C197.477 106.433 197.517 105.079 197.637 103.945C195.942 104.92 194.228 105.895 192.514 106.85Z" fill="#3D3D3D"/>
<path opacity="0.43" d="M182.566 91.1914C181.569 93.3205 180.572 95.4296 179.576 97.5587C181.21 97.5189 182.825 97.499 184.46 97.4592C183.503 97.1607 182.526 96.8623 181.569 96.5638C181.888 94.773 182.227 92.9822 182.566 91.1914Z" fill="#3D3D3D"/>
</svg>
